<svg xmlns="http://www.w3.org/2000/svg" xml:space="preserve" width="2000" height="1500" data-id="lg_jV4vpMSkZmKR38A1Bu" data-version="1"><path fill="#fff" stroke="transparent" d="M0 0h2000v1500H0z"/><g data-padding="20"><g fill="#002f81" stroke="#8bc3d9" stroke-width="59.543" paint-order="stroke"><path d="M611.723 1291.871a11.909 11.909 0 0 1-10.122-18.22c1.071-1.667 102.652-166.959 100.032-249.723-2.858-85.028-26.2-175.414-56.685-219.952-32.153-46.563-78.12-155.764-75.143-241.983 3.215-93.125 83.003-358.448 397.27-353.804 141.474 1.905 320.222 46.444 368.214 247.699l1.19 4.763q3.693 14.29 7.742 27.628c8.812 29.772 17.029 57.876 11.075 87.886-6.55 32.748-5.24 36.202 11.432 64.663 4.406 7.503 11.79 18.101 19.649 29.176 25.008 35.726 42.752 62.401 43.824 81.336 2.024 34.535-19.53 44.657-39.894 51.445-5.478 1.906-12.385 5.12-14.648 10.36q-2.262 5.121 1.667 13.457c5.002 9.884 5.717 21.436 1.668 31.915q-3.692 9.408-11.909 15.958c6.55 13.338 7.74 28.58-9.289 45.848-8.574 8.336-7.026 12.623-4.168 20.006l1.191 3.573c4.406 13.1 9.527 68.117-24.293 85.861-14.29 7.502-41.323 11.075-72.762 15.005-30.01 3.93-67.164 8.693-77.048 16.672-21.198 17.267-30.606 53.112-23.937 91.339 3.216 18.696-1.072 34.296-5.954 52.278-5.002 18.102-10.718 38.584-11.075 69.308-.12 6.55-5.478 11.433-12.147 11.79a11.91 11.91 0 0 1-11.67-12.147 274 274 0 0 1 11.908-75.262c4.526-16.553 7.741-28.462 5.478-41.918-8.217-46.563 4.526-91.34 32.392-113.846 15.124-12.266 50.968-16.91 88.957-21.793 25.484-3.216 54.303-6.907 64.783-12.504 19.292-10.123 14.885-51.207 12.86-57.161l-.952-2.74c-3.453-9.05-9.884-25.96 9.527-45.252 9.289-9.289 9.289-13.219 0-26.437l-8.455-12.266 13.933-5.597q7.979-3.215 10.48-9.527 2.381-5.597-1.191-13.1a39.3 39.3 0 0 1-1.787-32.986q6.907-16.077 28.938-23.341c20.245-6.788 24.532-11.909 23.698-27.628-.833-13.576-24.174-46.92-39.655-68.95a512 512 0 0 1-20.602-30.725c-19.411-33.106-22.15-42.037-14.29-81.455 4.763-24.293-2.382-48.468-10.599-76.453q-4.168-13.933-7.979-28.58l-1.19-5.121c-35.726-149.572-151.954-226.74-345.35-229.36h-7.621c-344.516 0-365.594 327.487-365.594 330.821-2.858 80.86 40.608 183.63 70.856 227.692 32.868 47.873 57.876 143.499 60.734 232.575 3.096 90.03-98.96 256.035-103.367 263.18a11.91 11.91 0 0 1-10.122 5.597"/><path d="M1003.516 827.436h-71.452a11.909 11.909 0 1 1 0-23.817h71.452a11.909 11.909 0 1 1 0 23.817m7.145 20.483a13.1 13.1 0 0 0-12.385-8.574h-60.972c-5.478 0-10.36 3.572-12.385 8.574s-.953 10.956 2.858 14.647l18.101 19.054c2.977 3.096 7.145 5.359 11.313 5.359h21.198c4.168 0 8.336-2.263 11.313-5.24l17.982-18.815c3.93-3.811 5.12-10.004 2.977-15.005M967.79 386.818a11.91 11.91 0 0 1-11.909-11.909v-47.634a11.909 11.909 0 1 1 23.817 0v47.634a11.91 11.91 0 0 1-11.908 11.909m-88.124 22.745a11.91 11.91 0 0 1-10.241-5.954l-23.817-41.204a11.909 11.909 0 0 1 20.602-11.908l23.817 41.204a11.91 11.91 0 0 1-10.242 17.862m-65.019 63.83a11.9 11.9 0 0 1-5.954-1.667l-41.204-23.817a11.909 11.909 0 1 1 11.909-20.602l41.203 23.817a11.909 11.909 0 0 1-5.954 22.27m-25.605 92.053h-47.634a11.909 11.909 0 1 1 0-23.817h47.634a11.909 11.909 0 1 1 0 23.817m-16.077 112.058a11.909 11.909 0 0 1-5.954-22.15l41.323-23.817a11.909 11.909 0 1 1 11.908 20.602l-41.322 23.817a11.9 11.9 0 0 1-5.955 1.548m392.389-1.665a11.9 11.9 0 0 1-5.955-1.668l-41.204-23.817a11.909 11.909 0 1 1 11.91-20.602l41.322 23.817a11.909 11.909 0 0 1-5.954 22.27m28.461-110.393h-47.634a11.909 11.909 0 1 1 0-23.817h47.634a11.909 11.909 0 0 1 0 23.817m-70.261-90.387a11.909 11.909 0 0 1-5.954-22.15l41.204-23.818a11.909 11.909 0 1 1 11.908 20.602l-41.203 23.817a11.9 11.9 0 0 1-5.955 1.548m-65.019-66.926a11.909 11.909 0 0 1-10.36-17.863l23.817-41.323a11.95 11.95 0 1 1 20.72 11.909l-23.816 41.322a11.91 11.91 0 0 1-10.36 5.955m2.379 42.515a131 131 0 0 0-92.172-40.013h-.358a134.567 134.567 0 0 0-121.586 182.559l20.244 46.92a631 631 0 0 1 28.105 69.546c3.096 10.003 8.455 41.918 10.36 53.231 3.096 15.362 16.672 28.82 32.153 28.82h63.116c15.6 0 29.176-14.53 32.153-30.249 1.786-10.956 7.383-43.466 10.36-53.588 5.836-19.292 15.482-41.204 27.628-69.07l20.245-47.158c3.692-9.289 8.574-24.651 8.455-47.635a131 131 0 0 0-38.584-93.363m-85.98 317.245h-12.266c0-61.33-15.123-111.94-27.39-143.022l2.382.238c14.053 0 20.84-10.956 25.008-17.506 1.31-2.143 3.573-5.716 4.764-6.311 1.19.595 3.453 4.168 4.763 6.311 4.05 6.55 10.956 17.506 25.008 17.506h1.191a440.6 440.6 0 0 0-23.46 142.903m93.72-184.345c0 .238-13.694 32.391-19.767 46.086a655 655 0 0 0-28.581 72.285 703 703 0 0 0-10.718 55.018c-.714 4.287-4.525 11.075-8.812 11.075h-2.382s-4.168-90.505 38.941-172.674c1.787-3.454 1.906-7.741.238-11.195a11.91 11.91 0 0 0-10.598-6.907c-14.052 0-20.84 10.956-25.008 17.506-1.31 2.144-3.573 5.835-4.764 6.312-1.19-.477-3.572-4.168-4.763-6.312-4.168-6.55-10.956-17.506-25.008-17.506s-20.96 10.956-25.008 17.506c-1.31 2.144-3.573 5.835-4.764 6.312-1.19-.596-3.453-4.168-4.763-6.312-4.168-6.55-10.956-17.506-25.008-17.506a11.91 11.91 0 0 0-10.36 6.55c-1.787 3.335-1.906 8.098 0 11.552a404.9 404.9 0 0 1 41.322 172.436h-1.31c-4.287 0-8.098-5.478-8.812-9.289-.357-1.667-6.907-43.585-11.075-57.161a643 643 0 0 0-29.057-71.57c-6.073-13.695-17.744-40.847-20.245-46.682 0-.238-6.907-15.481-7.026-38.346 0-28.58 10.956-56.566 31.2-76.81a107.18 107.18 0 0 1 75.62-33.583h.358a110.75 110.75 0 0 1 100.032 148.977"/></g><path fill="transparent" stroke="transparent" stroke-width="1.52" d="M554.56 187.5h890.88v1125H554.56z"/></g></svg>